# Blender v2.78 (sub 0) OBJ File: 'lamp_post.blend'
# www.blender.org
mtllib lamp_post.mtl
o Cylinder
v 0.033738 -4.959105 -0.584759
v 0.033738 -4.836957 -0.507139
v 0.540154 -4.959105 -0.292380
v 0.472933 -4.836957 -0.253569
v 0.540154 -4.959105 0.292380
v 0.472933 -4.836957 0.253569
v 0.033738 -4.959105 0.584759
v 0.033738 -4.836957 0.507139
v -0.472678 -4.959105 0.292380
v -0.405457 -4.836957 0.253569
v -0.472678 -4.959105 -0.292380
v -0.405457 -4.836957 -0.253569
v 0.033738 -4.642805 0.383542
v -0.298419 -4.642805 0.191771
v 0.365895 -4.642805 0.191771
v 0.365895 -4.642805 -0.191771
v -0.298419 -4.642805 -0.191771
v 0.033738 -4.642805 -0.383542
v 0.033738 -4.340908 -0.284867
v 0.033738 -4.448653 -0.318259
v 0.033738 -4.395603 -0.298024
v 0.309358 -4.448653 -0.159129
v 0.280440 -4.340908 -0.142434
v 0.291835 -4.395603 -0.149012
v -0.212964 -4.340908 -0.142433
v -0.241882 -4.448653 -0.159129
v -0.224358 -4.395603 -0.149012
v 0.033738 -4.340908 0.284867
v 0.033738 -4.448653 0.318259
v 0.033738 -4.395603 0.298024
v -0.241882 -4.448653 0.159129
v -0.212964 -4.340908 0.142434
v -0.224358 -4.395603 0.149012
v 0.309358 -4.448653 0.159129
v 0.280440 -4.340908 0.142434
v 0.291835 -4.395603 0.149012
v 0.489516 -4.836957 -0.263143
v 0.540154 -4.887596 -0.292380
v 0.525323 -4.851789 -0.283816
v 0.033738 -4.887596 -0.584759
v 0.033738 -4.836957 -0.526287
v 0.033738 -4.851789 -0.567633
v 0.489516 -4.836957 0.263143
v 0.540154 -4.887596 0.292380
v 0.525323 -4.851789 0.283816
v 0.033738 -4.836957 0.526287
v 0.033738 -4.887596 0.584759
v 0.033738 -4.851789 0.567633
v -0.422039 -4.836957 0.263143
v -0.472678 -4.887596 0.292380
v -0.457846 -4.851789 0.283816
v -0.422039 -4.836957 -0.263143
v -0.472678 -4.887596 -0.292380
v -0.457847 -4.851789 -0.283816
v 0.207820 -3.956576 -0.100506
v 0.234877 -3.980428 -0.116127
v 0.033738 -3.980428 -0.232255
v 0.033738 -3.956576 -0.201012
v 0.207820 -3.956576 0.100506
v 0.234877 -3.980428 0.116127
v 0.033738 -3.956576 0.201012
v 0.033738 -3.980428 0.232255
v -0.140344 -3.956576 0.100506
v -0.167400 -3.980428 0.116127
v -0.140344 -3.956576 -0.100506
v -0.167400 -3.980428 -0.116127
v 0.033738 -4.050425 -0.092709
v 0.033738 2.910107 -0.092709
v 0.080093 -4.050425 -0.080288
v 0.080093 2.910107 -0.080288
v 0.114026 -4.050425 -0.046354
v 0.114026 2.910107 -0.046354
v 0.126447 -4.050425 0.000000
v 0.126447 2.910107 0.000000
v 0.114026 -4.050425 0.046355
v 0.114026 2.910107 0.046355
v 0.080093 -4.050425 0.080288
v 0.080093 2.910107 0.080288
v 0.033738 -4.050425 0.092709
v 0.033738 2.910107 0.092709
v -0.012616 -4.050425 0.080288
v -0.012616 2.910107 0.080288
v -0.046550 -4.050425 0.046355
v -0.046550 2.910107 0.046355
v -0.058971 -4.050425 0.000000
v -0.058971 2.910107 0.000000
v -0.046550 -4.050425 -0.046354
v -0.046550 2.910107 -0.046354
v -0.012616 -4.050425 -0.080288
v -0.012616 2.910107 -0.080288
v 0.055155 4.735842 -0.009913
v 0.159058 2.911954 -0.113816
v 0.055155 4.735842 0.009913
v 0.159058 2.911954 0.113816
v 0.035329 4.735842 -0.009913
v -0.068574 2.911954 -0.113816
v 0.035329 4.735842 0.009913
v -0.068574 2.911954 0.113816
v 0.399355 3.013989 0.354113
v -0.308872 3.013989 0.354113
v -0.308872 3.013989 -0.354113
v 0.399355 3.013989 -0.354113
v -0.555326 3.983595 0.600568
v 0.645810 3.983595 0.600568
v -0.555326 3.983595 -0.600568
v 0.645810 3.983595 -0.600568
v -0.690618 4.156993 0.735860
v 0.781102 4.156993 0.735860
v -0.690618 4.156993 -0.735860
v 0.781102 4.156993 -0.735860
v -0.133284 4.349494 0.178525
v 0.223767 4.349494 0.178525
v -0.133284 4.349494 -0.178525
v 0.223767 4.349494 -0.178525
v -0.046618 4.402422 0.091860
v 0.137102 4.402422 0.091860
v -0.046618 4.402422 -0.091860
v 0.137102 4.402422 -0.091860
v 0.001744 4.496640 0.043497
v 0.088739 4.496640 0.043497
v 0.001744 4.496640 -0.043497
v 0.088739 4.496640 -0.043497
v 0.424070 3.498792 0.378828
v -0.333586 3.498792 -0.378828
v 0.424070 3.498792 -0.378828
v -0.333586 3.498792 0.378828
v 0.376065 3.212449 0.330823
v -0.285581 3.212449 -0.330823
v 0.376065 3.212449 -0.330823
v -0.285581 3.212449 0.330823
v -0.384762 3.741193 0.430004
v 0.475246 3.741193 0.430004
v -0.384762 3.741193 -0.430004
v 0.475246 3.741193 -0.430004
v -0.477282 3.946034 0.522524
v 0.567766 3.946034 0.522524
v -0.477282 3.946034 -0.522524
v 0.567766 3.946034 -0.522524
v 0.407362 3.741193 0.430004
v -0.325018 3.741193 0.430004
v 0.316889 3.212449 0.330823
v -0.246473 3.212449 0.330823
v 0.483784 3.946034 0.522524
v -0.395072 3.946034 0.522524
v 0.345799 3.498792 0.378828
v -0.267701 3.498792 0.378828
v -0.248596 3.116880 0.342039
v 0.279991 3.116880 0.342038
v 0.304133 3.117721 0.341515
v -0.385802 3.946034 -0.522524
v 0.473949 3.946034 -0.522524
v -0.264800 3.498792 -0.378828
v 0.357192 3.498792 -0.378828
v -0.232957 3.212449 -0.330823
v 0.316858 3.212449 -0.330823
v -0.315748 3.741193 -0.430004
v 0.403895 3.741193 -0.430004
v 0.316858 3.212449 0.330823
v 0.304121 3.121348 -0.341515
v -0.213852 3.121348 -0.341515
v -0.385802 3.943531 -0.413900
v 0.473949 3.943531 -0.413900
v -0.264800 3.496289 -0.270205
v 0.357192 3.496289 -0.270205
v -0.232957 3.209945 -0.222199
v 0.316858 3.209945 -0.222199
v -0.315748 3.738690 -0.321380
v 0.403895 3.738690 -0.321380
v 0.304121 3.118845 -0.232891
v -0.213852 3.118845 -0.232891
v 0.316855 3.210830 0.225763
v 0.316885 3.210830 0.225763
v 0.483781 3.944416 0.417464
v -0.395075 3.944416 0.417464
v -0.267705 3.497174 0.273768
v -0.246477 3.210830 0.225763
v 0.345796 3.497174 0.273768
v -0.248599 3.115262 0.236979
v 0.279988 3.115262 0.236978
v -0.325022 3.739575 0.324944
v 0.407358 3.739575 0.324944
v 0.304130 3.116103 0.236455
vn 1.0000 0.0000 0.0000
vn 0.0000 1.0000 0.0000
vn -0.4801 0.2796 -0.8315
vn 0.0000 -1.0000 0.0000
vn 0.5000 0.0000 -0.8660
vn -0.5000 0.0000 -0.8660
vn -0.5000 0.0000 0.8660
vn -1.0000 0.0000 0.0000
vn 0.5000 0.0000 0.8660
vn 0.9921 0.1254 0.0000
vn 0.4801 0.2796 -0.8315
vn 0.4801 0.2796 0.8315
vn 0.9601 0.2796 0.0000
vn -0.9921 0.1254 0.0000
vn -0.4801 0.2796 0.8315
vn -0.4961 0.1254 0.8592
vn -0.9601 0.2796 0.0000
vn -0.8757 0.4828 0.0000
vn 0.4961 0.1254 0.8592
vn 0.4961 0.1254 -0.8592
vn 0.4895 0.2039 0.8478
vn 0.4748 0.3137 0.8223
vn -0.9790 0.2039 0.0000
vn -0.9495 0.3137 0.0000
vn 0.9790 0.2039 0.0000
vn 0.9495 0.3137 0.0000
vn -0.4895 0.2039 0.8478
vn -0.4748 0.3137 0.8223
vn -0.4895 0.2039 -0.8478
vn -0.4748 0.3137 -0.8223
vn 0.4895 0.2039 -0.8478
vn 0.4748 0.3137 -0.8223
vn -0.4961 0.1254 -0.8592
vn -0.4379 0.4828 0.7584
vn 0.8757 0.4828 0.0000
vn 0.4379 0.4828 0.7584
vn 0.4379 0.4828 -0.7584
vn -0.4379 0.4828 -0.7584
vn 0.4619 0.3827 -0.8001
vn 0.1913 0.9239 -0.3314
vn 0.9239 0.3827 0.0000
vn 0.3827 0.9239 0.0000
vn 0.4619 0.3827 0.8001
vn 0.1913 0.9239 0.3314
vn -0.4619 0.3827 0.8001
vn -0.1913 0.9239 0.3314
vn -0.9239 0.3827 -0.0000
vn -0.3827 0.9239 0.0000
vn -0.4619 0.3827 -0.8001
vn -0.1913 0.9239 -0.3314
vn 0.3306 0.7501 -0.5727
vn 0.6613 0.7501 0.0000
vn 0.3306 0.7501 0.5727
vn -0.3306 0.7501 0.5727
vn -0.6613 0.7501 0.0000
vn -0.3306 0.7501 -0.5727
vn 0.2588 0.0000 -0.9659
vn 0.7071 0.0000 -0.7071
vn 0.9659 0.0000 -0.2588
vn 0.9659 0.0000 0.2588
vn 0.7071 0.0000 0.7071
vn 0.2588 0.0000 0.9659
vn -0.2588 0.0000 0.9659
vn -0.7071 0.0000 0.7071
vn -0.9659 0.0000 0.2588
vn -0.9659 0.0000 -0.2588
vn -0.7071 0.0000 -0.7071
vn -0.2588 0.0000 -0.9659
vn 0.9903 0.1390 0.0000
vn -0.9903 0.1390 0.0000
vn 0.0000 0.1390 -0.9903
vn 0.0000 0.1390 0.9903
vn 0.0000 -0.9205 0.3908
vn 0.0000 -0.9205 -0.3908
vn -0.3908 -0.9205 0.0000
vn 0.3908 -0.9205 0.0000
vn 0.0000 -0.9011 0.4337
vn 0.0000 -0.9011 -0.4337
vn -0.4337 -0.9011 0.0000
vn 0.4337 -0.9011 0.0000
vn 0.0000 -0.6152 0.7884
vn 0.0000 -0.6152 -0.7884
vn -0.7884 -0.6151 0.0000
vn 0.7884 -0.6151 0.0000
vn 0.0000 0.9452 0.3265
vn 0.0000 0.9452 -0.3265
vn -0.3265 0.9452 0.0000
vn 0.3265 0.9452 0.0000
vn 0.0000 0.8534 0.5212
vn 0.0000 0.8534 -0.5212
vn -0.5212 0.8534 0.0000
vn 0.5212 0.8534 0.0000
vn 0.0000 0.4567 0.8896
vn 0.0000 0.4567 -0.8896
vn -0.8896 0.4567 0.0000
vn 0.8896 0.4567 0.0000
vn 0.9862 -0.1653 0.0000
vn -0.9862 -0.1653 0.0000
vn 0.0000 -0.1653 -0.9862
vn 0.0000 -0.1653 0.9862
vn -0.0002 0.1166 0.9932
vn 0.0000 0.1166 -0.9932
vn -0.9932 0.1166 0.0000
vn 0.9932 0.1166 0.0000
vn 0.9784 -0.2066 0.0000
vn -0.9784 -0.2066 0.0000
vn 0.0000 -0.2066 -0.9784
vn 0.0000 -0.2066 0.9784
vn 0.9114 -0.4116 0.0000
vn -0.9114 -0.4116 0.0000
vn 0.0000 -0.4116 -0.9114
vn 0.0000 -0.4116 0.9114
vn -0.0000 0.9997 0.0230
vn -0.9818 0.1901 0.0044
vn -0.9904 0.1381 0.0032
vn 0.9938 0.1109 0.0026
vn -0.9451 0.3266 0.0075
vn 0.0000 -0.9997 -0.0230
vn -0.9901 0.1400 0.0032
vn 0.9784 0.2066 0.0048
vn 0.9788 0.2047 0.0047
vn 0.9451 0.3266 0.0075
vn -0.9361 0.3517 -0.0054
vn 0.9730 0.2308 -0.0036
vn -0.9949 0.1007 -0.0015
vn -0.0351 0.9993 -0.0154
vn 0.0000 -0.9999 0.0154
vn -0.9690 0.2469 -0.0038
vn 0.9998 -0.0222 0.0003
vn 0.9455 0.3256 -0.0050
vn -0.9911 0.1329 -0.0020
vn 0.0000 0.9999 -0.0154
vn 0.9972 0.0741 -0.0012
vn 0.0000 -0.2317 0.9728
usemtl Material.001
s off
f 3//1 38//1 44//1 5//1
f 4//2 6//2 43//2 37//2
f 6//2 8//2 46//2 43//2
f 8//2 10//2 49//2 46//2
f 18//3 17//3 26//3 20//3
f 10//2 12//2 52//2 49//2
f 12//2 2//2 41//2 52//2
f 1//4 3//4 5//4 7//4 9//4 11//4
f 1//5 40//5 38//5 3//5
f 11//6 53//6 40//6 1//6
f 7//7 47//7 50//7 9//7
f 9//8 50//8 53//8 11//8
f 5//9 44//9 47//9 7//9
f 35//10 23//10 56//10 60//10
f 16//11 18//11 20//11 22//11
f 13//12 15//12 34//12 29//12
f 15//13 16//13 22//13 34//13
f 25//14 32//14 64//14 66//14
f 14//15 13//15 29//15 31//15
f 32//16 28//16 62//16 64//16
f 17//17 14//17 31//17 26//17
f 12//18 10//18 14//18 17//18
f 28//19 35//19 60//19 62//19
f 23//20 19//20 57//20 56//20
f 35//21 28//21 30//21 36//21
f 36//22 30//22 29//22 34//22
f 32//23 25//23 27//23 33//23
f 33//24 27//24 26//24 31//24
f 23//25 35//25 36//25 24//25
f 24//26 36//26 34//26 22//26
f 28//27 32//27 33//27 30//27
f 30//28 33//28 31//28 29//28
f 25//29 19//29 21//29 27//29
f 27//30 21//30 20//30 26//30
f 19//31 23//31 24//31 21//31
f 21//32 24//32 22//32 20//32
f 19//33 25//33 66//33 57//33
f 10//34 8//34 13//34 14//34
f 6//35 4//35 16//35 15//35
f 8//36 6//36 15//36 13//36
f 4//37 2//37 18//37 16//37
f 2//38 12//38 17//38 18//38
f 38//39 40//39 42//39 39//39
f 39//40 42//40 41//40 37//40
f 44//41 38//41 39//41 45//41
f 45//42 39//42 37//42 43//42
f 47//43 44//43 45//43 48//43
f 48//44 45//44 43//44 46//44
f 50//45 47//45 48//45 51//45
f 51//46 48//46 46//46 49//46
f 53//47 50//47 51//47 54//47
f 54//48 51//48 49//48 52//48
f 40//49 53//49 54//49 42//49
f 42//50 54//50 52//50 41//50
f 2//2 4//2 37//2 41//2
f 56//51 57//51 58//51 55//51
f 60//52 56//52 55//52 59//52
f 62//53 60//53 59//53 61//53
f 64//54 62//54 61//54 63//54
f 66//55 64//55 63//55 65//55
f 57//56 66//56 65//56 58//56
f 55//2 58//2 65//2 63//2 61//2 59//2
f 67//57 68//57 70//57 69//57
f 69//58 70//58 72//58 71//58
f 71//59 72//59 74//59 73//59
f 73//60 74//60 76//60 75//60
f 75//61 76//61 78//61 77//61
f 77//62 78//62 80//62 79//62
f 79//63 80//63 82//63 81//63
f 81//64 82//64 84//64 83//64
f 83//65 84//65 86//65 85//65
f 85//66 86//66 88//66 87//66
f 70//2 68//2 90//2 88//2 86//2 84//2 82//2 80//2 78//2 76//2 74//2 72//2
f 87//67 88//67 90//67 89//67
f 89//68 90//68 68//68 67//68
f 67//4 69//4 71//4 73//4 75//4 77//4 79//4 81//4 83//4 85//4 87//4 89//4
f 96//4 92//4 94//4 98//4
f 122//69 91//69 93//69 120//69
f 119//70 97//70 95//70 121//70
f 91//2 95//2 97//2 93//2
f 121//71 95//71 91//71 122//71
f 120//72 93//72 97//72 119//72
f 94//73 99//73 100//73 98//73
f 96//74 101//74 102//74 92//74
f 98//75 100//75 101//75 96//75
f 92//76 102//76 99//76 94//76
f 136//77 104//77 103//77 135//77 144//77 143//77
f 137//78 105//78 106//78 138//78 151//78 150//78
f 135//79 103//79 105//79 137//79
f 138//80 106//80 104//80 136//80
f 104//81 108//81 107//81 103//81
f 105//82 109//82 110//82 106//82
f 103//83 107//83 109//83 105//83
f 106//84 110//84 108//84 104//84
f 108//85 112//85 111//85 107//85
f 109//86 113//86 114//86 110//86
f 107//87 111//87 113//87 109//87
f 110//88 114//88 112//88 108//88
f 112//89 116//89 115//89 111//89
f 113//90 117//90 118//90 114//90
f 111//91 115//91 117//91 113//91
f 114//92 118//92 116//92 112//92
f 116//93 120//93 119//93 115//93
f 117//94 121//94 122//94 118//94
f 115//95 119//95 121//95 117//95
f 118//96 122//96 120//96 116//96
f 129//97 125//97 123//97 127//97
f 130//98 126//98 124//98 128//98
f 128//99 124//99 152//99 154//99
f 127//100 123//100 145//100 141//100 158//100
f 99//101 127//101 158//101 149//101 148//101 147//101 142//101 130//101 100//101
f 101//102 128//102 154//102 160//102 159//102 155//102 129//102 102//102
f 100//103 130//103 128//103 101//103
f 102//104 129//104 127//104 99//104
f 125//105 134//105 132//105 123//105
f 126//106 131//106 133//106 124//106
f 124//107 133//107 156//107 152//107
f 123//108 132//108 139//108 145//108
f 134//109 138//109 136//109 132//109
f 131//110 135//110 137//110 133//110
f 133//111 137//111 150//111 156//111
f 132//112 136//112 143//112 139//112
f 142//100 146//100 126//100 130//100
f 146//108 140//108 131//108 126//108
f 140//112 144//112 135//112 131//112
f 159//113 160//113 170//113 169//113
f 157//114 153//114 164//114 168//114
f 155//99 153//99 125//99 129//99
f 155//115 159//115 169//115 166//115
f 153//107 157//107 134//107 125//107
f 154//116 152//116 163//116 165//116
f 157//111 151//111 138//111 134//111
f 151//117 157//117 168//117 162//117
f 150//118 151//118 162//118 161//118
f 153//119 155//119 166//119 164//119
f 152//120 156//120 167//120 163//120
f 160//121 154//121 165//121 170//121
f 156//122 150//122 161//122 167//122
f 139//123 143//123 173//123 181//123
f 140//124 146//124 175//124 180//124
f 141//125 145//125 177//125 172//125
f 148//126 149//126 182//126 179//126
f 143//127 144//127 174//127 173//127
f 145//128 139//128 181//128 177//128
f 142//129 147//129 178//129 176//129
f 144//130 140//130 180//130 174//130
f 149//131 158//131 171//131 182//131
f 158//132 141//132 172//132 171//132
f 147//132 148//132 179//132 178//132
f 146//133 142//133 176//133 175//133
usemtl light
f 166//102 169//102 170//102 165//102
f 165//99 163//99 164//99 166//99
f 163//107 167//107 168//107 164//107
f 167//111 161//111 162//111 168//111
f 171//134 172//134 177//134 181//134 173//134 174//134 180//134 175//134 176//134 178//134 179//134 182//134
